<svg width="119" height="29" viewBox="0 0 119 29" fill="none" xmlns="http://www.w3.org/2000/svg">
<path d="M6.4082 22.0004H1.80859L1.83789 18.8364H6.4082C7.64844 18.8364 8.68848 18.5629 9.52832 18.0161C10.3682 17.4594 11.0029 16.6635 11.4326 15.6284C11.8623 14.5834 12.0771 13.3334 12.0771 11.8784V10.7797C12.0771 9.65668 11.9551 8.66547 11.7109 7.80609C11.4668 6.94672 11.1055 6.22406 10.627 5.63812C10.1582 5.05219 9.57715 4.60785 8.88379 4.30511C8.19043 4.00238 7.39453 3.85101 6.49609 3.85101H1.7207V0.672302H6.49609C7.92188 0.672302 9.2207 0.91156 10.3926 1.39008C11.5742 1.86859 12.5947 2.55707 13.4541 3.45551C14.3232 4.34418 14.9873 5.40863 15.4463 6.64886C15.915 7.8891 16.1494 9.27582 16.1494 10.809V11.8784C16.1494 13.4018 15.915 14.7885 15.4463 16.0385C14.9873 17.2787 14.3232 18.3432 13.4541 19.2319C12.5947 20.1205 11.5693 20.8041 10.3779 21.2827C9.18652 21.7612 7.86328 22.0004 6.4082 22.0004ZM4.06445 0.672302V22.0004H0.0361328V0.672302H4.06445ZM28.7178 18.2358V6.15082H32.6143V22.0004H28.9521L28.7178 18.2358ZM29.2158 14.9545L30.417 14.9252C30.417 15.9897 30.2998 16.9711 30.0654 17.8696C29.8311 18.768 29.4648 19.5493 28.9668 20.2133C28.4785 20.8676 27.8584 21.3803 27.1064 21.7514C26.3545 22.1127 25.4658 22.2934 24.4404 22.2934C23.6592 22.2934 22.9463 22.186 22.3018 21.9711C21.6572 21.7465 21.1006 21.3998 20.6318 20.9311C20.1729 20.4526 19.8164 19.8422 19.5625 19.1C19.3086 18.3481 19.1816 17.4448 19.1816 16.3901V6.15082H23.0488V16.4194C23.0488 16.9467 23.1074 17.3862 23.2246 17.7377C23.3516 18.0893 23.5225 18.3774 23.7373 18.602C23.9619 18.8168 24.2207 18.9731 24.5137 19.0707C24.8164 19.1586 25.1387 19.2026 25.4805 19.2026C26.418 19.2026 27.1553 19.017 27.6924 18.6459C28.2393 18.2651 28.6299 17.7573 28.8643 17.1225C29.0986 16.478 29.2158 15.7553 29.2158 14.9545ZM44.7578 17.6645C44.7578 17.3325 44.6699 17.0346 44.4941 16.7709C44.3184 16.5073 43.9863 16.268 43.498 16.0532C43.0195 15.8286 42.3164 15.6186 41.3887 15.4233C40.5684 15.2475 39.8115 15.0278 39.1182 14.7641C38.4248 14.5004 37.8291 14.183 37.3311 13.812C36.833 13.4311 36.4424 12.9868 36.1592 12.4789C35.8857 11.9614 35.749 11.3657 35.749 10.6918C35.749 10.0375 35.8906 9.4223 36.1738 8.84613C36.457 8.26019 36.8672 7.7475 37.4043 7.30804C37.9414 6.85883 38.5957 6.50726 39.3672 6.25336C40.1387 5.98969 41.0078 5.85785 41.9746 5.85785C43.3223 5.85785 44.4795 6.07758 45.4463 6.51703C46.4229 6.95648 47.1699 7.56195 47.6875 8.33344C48.2051 9.09515 48.4639 9.95453 48.4639 10.9116H44.5967C44.5967 10.4916 44.499 10.1108 44.3037 9.76898C44.1182 9.42719 43.8301 9.15375 43.4395 8.94867C43.0488 8.73383 42.5557 8.6264 41.96 8.6264C41.4229 8.6264 40.9688 8.71429 40.5977 8.89008C40.2363 9.06586 39.9629 9.29535 39.7773 9.57855C39.5918 9.86176 39.499 10.1743 39.499 10.5161C39.499 10.77 39.5479 10.9995 39.6455 11.2045C39.7529 11.3998 39.9238 11.5805 40.1582 11.7465C40.3926 11.9125 40.71 12.0639 41.1104 12.2006C41.5205 12.3373 42.0234 12.4692 42.6191 12.5961C43.8008 12.8305 44.8311 13.143 45.71 13.5336C46.5986 13.9145 47.292 14.4223 47.79 15.0571C48.2881 15.6918 48.5371 16.5024 48.5371 17.4887C48.5371 18.1918 48.3857 18.8364 48.083 19.4223C47.7803 19.9985 47.3408 20.5014 46.7646 20.9311C46.1885 21.3608 45.5 21.6977 44.6992 21.9418C43.8984 22.1762 42.9951 22.2934 41.9893 22.2934C40.5342 22.2934 39.3037 22.0346 38.2979 21.517C37.292 20.9897 36.5303 20.3256 36.0127 19.5248C35.4951 18.7143 35.2363 17.8745 35.2363 17.0053H38.9424C38.9717 17.6205 39.1377 18.1137 39.4404 18.4848C39.7432 18.8559 40.124 19.1245 40.583 19.2905C41.0518 19.4467 41.5449 19.5248 42.0625 19.5248C42.6484 19.5248 43.1416 19.4467 43.542 19.2905C43.9424 19.1245 44.2451 18.9047 44.4502 18.6313C44.6553 18.3481 44.7578 18.0258 44.7578 17.6645ZM58.6006 22.2934C57.3994 22.2934 56.3203 22.0981 55.3633 21.7075C54.4062 21.3168 53.5908 20.7748 52.917 20.0815C52.2529 19.3784 51.7402 18.5629 51.3789 17.6352C51.0273 16.6977 50.8516 15.6918 50.8516 14.6176V14.0317C50.8516 12.811 51.0273 11.7026 51.3789 10.7065C51.7305 9.70062 52.2285 8.83636 52.873 8.11371C53.5176 7.39105 54.2891 6.83441 55.1875 6.44379C56.0859 6.05316 57.0771 5.85785 58.1611 5.85785C59.2842 5.85785 60.2754 6.04828 61.1348 6.42914C61.9941 6.80023 62.7119 7.32758 63.2881 8.01117C63.8643 8.69476 64.2988 9.51508 64.5918 10.4721C64.8848 11.4194 65.0312 12.4692 65.0312 13.6215V15.2475H52.6094V12.5815H61.2227V12.2885C61.2031 11.6733 61.0859 11.1118 60.8711 10.6039C60.6562 10.0864 60.3242 9.67621 59.875 9.37347C59.4258 9.06097 58.8447 8.90472 58.1318 8.90472C57.5557 8.90472 57.0527 9.03168 56.623 9.28558C56.2031 9.52972 55.8516 9.88129 55.5684 10.3403C55.2949 10.7895 55.0898 11.3266 54.9531 11.9516C54.8164 12.5766 54.748 13.27 54.748 14.0317V14.6176C54.748 15.2817 54.8359 15.8969 55.0117 16.4633C55.1973 17.0297 55.4658 17.5229 55.8174 17.9428C56.1787 18.353 56.6084 18.6752 57.1064 18.9096C57.6143 19.1342 58.1904 19.2465 58.835 19.2465C59.6455 19.2465 60.3779 19.0903 61.0322 18.7778C61.6963 18.4555 62.2725 17.9819 62.7607 17.3569L64.709 19.3784C64.377 19.8666 63.9277 20.3354 63.3613 20.7846C62.8047 21.2338 62.1309 21.6 61.3398 21.8832C60.5488 22.1567 59.6357 22.2934 58.6006 22.2934Z" fill="#799FFF"/>
<path d="M76.3984 3.90961L70.3193 22.0004H66.0566L74.0254 0.672302H76.75L76.3984 3.90961ZM81.4814 22.0004L75.373 3.90961L75.0068 0.672302H77.7461L85.7588 22.0004H81.4814ZM81.2031 14.0756V17.2543H69.7627V14.0756H81.2031ZM91.1494 9.19769V28.0942H87.2676V6.15082H90.8564L91.1494 9.19769ZM101.33 13.9145V14.2221C101.33 15.3745 101.193 16.4438 100.92 17.4301C100.656 18.4067 100.266 19.2612 99.748 19.9936C99.2305 20.7162 98.5859 21.2827 97.8145 21.6928C97.0527 22.0932 96.1738 22.2934 95.1777 22.2934C94.2012 22.2934 93.3516 22.1078 92.6289 21.7368C91.9062 21.3559 91.2959 20.8188 90.7979 20.1254C90.2998 19.4321 89.8994 18.6264 89.5967 17.7084C89.3037 16.7807 89.084 15.77 88.9375 14.6762V13.6948C89.084 12.5327 89.3037 11.478 89.5967 10.5307C89.8994 9.57367 90.2998 8.74847 90.7979 8.05511C91.2959 7.35199 91.9014 6.81 92.6143 6.42914C93.3369 6.04828 94.1816 5.85785 95.1484 5.85785C96.1543 5.85785 97.0381 6.04828 97.7998 6.42914C98.5713 6.81 99.2207 7.35687 99.748 8.06976C100.275 8.78265 100.671 9.63226 100.935 10.6186C101.198 11.6049 101.33 12.7036 101.33 13.9145ZM97.4482 14.2221V13.9145C97.4482 13.2114 97.3848 12.562 97.2578 11.9662C97.1309 11.3608 96.9355 10.8334 96.6719 10.3842C96.4082 9.92523 96.0664 9.56879 95.6465 9.31488C95.2266 9.06097 94.7188 8.93402 94.123 8.93402C93.5273 8.93402 93.0146 9.03168 92.585 9.22699C92.1553 9.4223 91.8037 9.70062 91.5303 10.062C91.2568 10.4233 91.042 10.853 90.8857 11.351C90.7393 11.8393 90.6416 12.3813 90.5928 12.977V15.4086C90.6807 16.1313 90.8516 16.7807 91.1055 17.3569C91.3594 17.933 91.7305 18.392 92.2188 18.7338C92.7168 19.0756 93.3613 19.2465 94.1523 19.2465C94.748 19.2465 95.2559 19.1147 95.6758 18.851C96.0957 18.5873 96.4375 18.226 96.7012 17.767C96.9648 17.2983 97.1553 16.7612 97.2725 16.1557C97.3896 15.5502 97.4482 14.9057 97.4482 14.2221ZM108.024 9.19769V28.0942H104.143V6.15082H107.731L108.024 9.19769ZM118.205 13.9145V14.2221C118.205 15.3745 118.068 16.4438 117.795 17.4301C117.531 18.4067 117.141 19.2612 116.623 19.9936C116.105 20.7162 115.461 21.2827 114.689 21.6928C113.928 22.0932 113.049 22.2934 112.053 22.2934C111.076 22.2934 110.227 22.1078 109.504 21.7368C108.781 21.3559 108.171 20.8188 107.673 20.1254C107.175 19.4321 106.774 18.6264 106.472 17.7084C106.179 16.7807 105.959 15.77 105.812 14.6762V13.6948C105.959 12.5327 106.179 11.478 106.472 10.5307C106.774 9.57367 107.175 8.74847 107.673 8.05511C108.171 7.35199 108.776 6.81 109.489 6.42914C110.212 6.04828 111.057 5.85785 112.023 5.85785C113.029 5.85785 113.913 6.04828 114.675 6.42914C115.446 6.81 116.096 7.35687 116.623 8.06976C117.15 8.78265 117.546 9.63226 117.81 10.6186C118.073 11.6049 118.205 12.7036 118.205 13.9145ZM114.323 14.2221V13.9145C114.323 13.2114 114.26 12.562 114.133 11.9662C114.006 11.3608 113.811 10.8334 113.547 10.3842C113.283 9.92523 112.941 9.56879 112.521 9.31488C112.102 9.06097 111.594 8.93402 110.998 8.93402C110.402 8.93402 109.89 9.03168 109.46 9.22699C109.03 9.4223 108.679 9.70062 108.405 10.062C108.132 10.4233 107.917 10.853 107.761 11.351C107.614 11.8393 107.517 12.3813 107.468 12.977V15.4086C107.556 16.1313 107.727 16.7807 107.98 17.3569C108.234 17.933 108.605 18.392 109.094 18.7338C109.592 19.0756 110.236 19.2465 111.027 19.2465C111.623 19.2465 112.131 19.1147 112.551 18.851C112.971 18.5873 113.312 18.226 113.576 17.767C113.84 17.2983 114.03 16.7612 114.147 16.1557C114.265 15.5502 114.323 14.9057 114.323 14.2221Z" fill="#5E5E5E"/>
</svg>
