<svg width="17" height="4" viewBox="0 0 17 4" fill="none" xmlns="http://www.w3.org/2000/svg">
<path d="M2.31701 3.63571C1.83642 3.63571 1.42449 3.46524 1.08121 3.1243C0.737933 2.78335 0.568936 2.36783 0.574217 1.87772C0.568936 1.39827 0.737933 0.988071 1.08121 0.647127C1.42449 0.306184 1.83642 0.135712 2.31701 0.135712C2.78175 0.135712 3.18576 0.306184 3.52904 0.647127C3.87759 0.988071 4.05451 1.39827 4.05979 1.87772C4.05451 2.20268 3.97001 2.49834 3.8063 2.76471C3.64786 3.03107 3.43661 3.24416 3.17256 3.40398C2.91378 3.55847 2.62859 3.63571 2.31701 3.63571Z" fill="white"/>
<path d="M8.78711 3.63571C8.30652 3.63571 7.89459 3.46524 7.55131 3.1243C7.20804 2.78335 7.03904 2.36783 7.04432 1.87772C7.03904 1.39827 7.20804 0.988071 7.55131 0.647127C7.89459 0.306184 8.30652 0.135712 8.78711 0.135712C9.25185 0.135712 9.65586 0.306184 9.99914 0.647127C10.3477 0.988071 10.5246 1.39827 10.5299 1.87772C10.5246 2.20268 10.4401 2.49834 10.2764 2.76471C10.118 3.03107 9.90672 3.24416 9.64266 3.40398C9.38388 3.55847 9.0987 3.63571 8.78711 3.63571Z" fill="white"/>
<path d="M15.2572 3.63571C14.7766 3.63571 14.3647 3.46524 14.0214 3.1243C13.6781 2.78335 13.5091 2.36783 13.5144 1.87772C13.5091 1.39827 13.6781 0.988071 14.0214 0.647127C14.3647 0.306184 14.7766 0.135712 15.2572 0.135712C15.722 0.135712 16.126 0.306184 16.4692 0.647127C16.8178 0.988071 16.9947 1.39827 17 1.87772C16.9947 2.20268 16.9102 2.49834 16.7465 2.76471C16.5881 3.03107 16.3768 3.24416 16.1128 3.40398C15.854 3.55847 15.5688 3.63571 15.2572 3.63571Z" fill="white"/>
</svg>
