<svg width="17" height="4" viewBox="0 0 17 4" fill="none" xmlns="http://www.w3.org/2000/svg">
<path d="M1.77147 3.77142C1.29089 3.77142 0.878954 3.60095 0.535677 3.26001C0.192401 2.91906 0.0234034 2.50354 0.0286845 2.01343C0.0234034 1.53398 0.192401 1.12378 0.535677 0.782839C0.878954 0.441895 1.29089 0.271423 1.77147 0.271423C2.23622 0.271423 2.64023 0.441895 2.9835 0.782839C3.33206 1.12378 3.50898 1.53398 3.51426 2.01343C3.50898 2.33839 3.42448 2.63406 3.26076 2.90042C3.10233 3.16678 2.89108 3.37987 2.62702 3.53969C2.36825 3.69418 2.08306 3.77142 1.77147 3.77142Z" fill="#999999"/>
<path d="M8.24158 3.77142C7.76099 3.77142 7.34906 3.60095 7.00578 3.26001C6.6625 2.91906 6.49351 2.50354 6.49879 2.01343C6.49351 1.53398 6.6625 1.12378 7.00578 0.782839C7.34906 0.441895 7.76099 0.271423 8.24158 0.271423C8.70632 0.271423 9.11033 0.441895 9.45361 0.782839C9.80216 1.12378 9.97908 1.53398 9.98436 2.01343C9.97908 2.33839 9.89458 2.63406 9.73087 2.90042C9.57243 3.16678 9.36118 3.37987 9.09713 3.53969C8.83835 3.69418 8.55316 3.77142 8.24158 3.77142Z" fill="#999999"/>
<path d="M14.7117 3.77142C14.2311 3.77142 13.8192 3.60095 13.4759 3.26001C13.1326 2.91906 12.9636 2.50354 12.9689 2.01343C12.9636 1.53398 13.1326 1.12378 13.4759 0.782839C13.8192 0.441895 14.2311 0.271423 14.7117 0.271423C15.1764 0.271423 15.5804 0.441895 15.9237 0.782839C16.2723 1.12378 16.4492 1.53398 16.4545 2.01343C16.4492 2.33839 16.3647 2.63406 16.201 2.90042C16.0425 3.16678 15.8313 3.37987 15.5672 3.53969C15.3084 3.69418 15.0233 3.77142 14.7117 3.77142Z" fill="#999999"/>
</svg>
