<svg width="96" height="23" viewBox="0 0 96 23" fill="none" xmlns="http://www.w3.org/2000/svg">
<path d="M5.72656 17.6871H2.04688L2.07031 15.1559H5.72656C6.71875 15.1559 7.55078 14.9371 8.22266 14.4996C8.89453 14.0543 9.40234 13.4176 9.74609 12.5895C10.0898 11.7535 10.2617 10.7535 10.2617 9.58948V8.71057C10.2617 7.81213 10.1641 7.01917 9.96875 6.33167C9.77344 5.64417 9.48438 5.06604 9.10156 4.59729C8.72656 4.12854 8.26172 3.77307 7.70703 3.53088C7.15234 3.2887 6.51562 3.1676 5.79688 3.1676H1.97656V0.624634H5.79688C6.9375 0.624634 7.97656 0.81604 8.91406 1.19885C9.85938 1.58167 10.6758 2.13245 11.3633 2.8512C12.0586 3.56213 12.5898 4.4137 12.957 5.40588C13.332 6.39807 13.5195 7.50745 13.5195 8.73401V9.58948C13.5195 10.8082 13.332 11.9176 12.957 12.9176C12.5898 13.9098 12.0586 14.7614 11.3633 15.4723C10.6758 16.1832 9.85547 16.7301 8.90234 17.1129C7.94922 17.4957 6.89062 17.6871 5.72656 17.6871ZM3.85156 0.624634V17.6871H0.628906V0.624634H3.85156ZM23.5742 14.6754V5.00745H26.6914V17.6871H23.7617L23.5742 14.6754ZM23.9727 12.0504L24.9336 12.027C24.9336 12.8785 24.8398 13.6637 24.6523 14.3824C24.4648 15.1012 24.1719 15.7262 23.7734 16.2574C23.3828 16.7809 22.8867 17.191 22.2852 17.4879C21.6836 17.777 20.9727 17.9215 20.1523 17.9215C19.5273 17.9215 18.957 17.8356 18.4414 17.6637C17.9258 17.484 17.4805 17.2067 17.1055 16.8317C16.7383 16.4489 16.4531 15.9606 16.25 15.3668C16.0469 14.7653 15.9453 14.0426 15.9453 13.1989V5.00745H19.0391V13.2223C19.0391 13.6442 19.0859 13.9957 19.1797 14.277C19.2812 14.5582 19.418 14.7887 19.5898 14.9684C19.7695 15.1403 19.9766 15.2653 20.2109 15.3434C20.4531 15.4137 20.7109 15.4489 20.9844 15.4489C21.7344 15.4489 22.3242 15.3004 22.7539 15.0035C23.1914 14.6989 23.5039 14.2926 23.6914 13.7848C23.8789 13.2692 23.9727 12.691 23.9727 12.0504ZM36.4062 14.2184C36.4062 13.9528 36.3359 13.7145 36.1953 13.5035C36.0547 13.2926 35.7891 13.1012 35.3984 12.9293C35.0156 12.7496 34.4531 12.5817 33.7109 12.4254C33.0547 12.2848 32.4492 12.109 31.8945 11.8981C31.3398 11.6871 30.8633 11.4332 30.4648 11.1364C30.0664 10.8317 29.7539 10.4762 29.5273 10.0699C29.3086 9.65588 29.1992 9.17932 29.1992 8.64026C29.1992 8.11682 29.3125 7.62463 29.5391 7.1637C29.7656 6.69495 30.0938 6.28479 30.5234 5.93323C30.9531 5.57385 31.4766 5.2926 32.0938 5.08948C32.7109 4.87854 33.4062 4.77307 34.1797 4.77307C35.2578 4.77307 36.1836 4.94885 36.957 5.30042C37.7383 5.65198 38.3359 6.13635 38.75 6.75354C39.1641 7.36292 39.3711 8.05042 39.3711 8.81604H36.2773C36.2773 8.4801 36.1992 8.17542 36.043 7.90198C35.8945 7.62854 35.6641 7.40979 35.3516 7.24573C35.0391 7.07385 34.6445 6.98792 34.168 6.98792C33.7383 6.98792 33.375 7.05823 33.0781 7.19885C32.7891 7.33948 32.5703 7.52307 32.4219 7.74963C32.2734 7.9762 32.1992 8.2262 32.1992 8.49963C32.1992 8.70276 32.2383 8.88635 32.3164 9.05042C32.4023 9.20667 32.5391 9.3512 32.7266 9.48401C32.9141 9.61682 33.168 9.73792 33.4883 9.84729C33.8164 9.95667 34.2188 10.0621 34.6953 10.1637C35.6406 10.3512 36.4648 10.6012 37.168 10.9137C37.8789 11.2184 38.4336 11.6246 38.832 12.1324C39.2305 12.6403 39.4297 13.2887 39.4297 14.0778C39.4297 14.6403 39.3086 15.1559 39.0664 15.6246C38.8242 16.0856 38.4727 16.4879 38.0117 16.8317C37.5508 17.1754 37 17.4449 36.3594 17.6403C35.7188 17.8278 34.9961 17.9215 34.1914 17.9215C33.0273 17.9215 32.043 17.7145 31.2383 17.3004C30.4336 16.8785 29.8242 16.3473 29.4102 15.7067C28.9961 15.0582 28.7891 14.3864 28.7891 13.691H31.7539C31.7773 14.1832 31.9102 14.5778 32.1523 14.8746C32.3945 15.1715 32.6992 15.3864 33.0664 15.5192C33.4414 15.6442 33.8359 15.7067 34.25 15.7067C34.7188 15.7067 35.1133 15.6442 35.4336 15.5192C35.7539 15.3864 35.9961 15.2106 36.1602 14.9918C36.3242 14.7653 36.4062 14.5074 36.4062 14.2184ZM47.4805 17.9215C46.5195 17.9215 45.6562 17.7653 44.8906 17.4528C44.125 17.1403 43.4727 16.7067 42.9336 16.152C42.4023 15.5895 41.9922 14.9371 41.7031 14.1949C41.4219 13.4449 41.2812 12.6403 41.2812 11.7809V11.3121C41.2812 10.3356 41.4219 9.44885 41.7031 8.65198C41.9844 7.84729 42.3828 7.15588 42.8984 6.57776C43.4141 5.99963 44.0312 5.55432 44.75 5.24182C45.4688 4.92932 46.2617 4.77307 47.1289 4.77307C48.0273 4.77307 48.8203 4.92542 49.5078 5.2301C50.1953 5.52698 50.7695 5.94885 51.2305 6.49573C51.6914 7.0426 52.0391 7.69885 52.2734 8.46448C52.5078 9.22229 52.625 10.0621 52.625 10.984V12.2848H42.6875V10.152H49.5781V9.9176C49.5625 9.42542 49.4688 8.9762 49.2969 8.56995C49.125 8.15588 48.8594 7.82776 48.5 7.58557C48.1406 7.33557 47.6758 7.21057 47.1055 7.21057C46.6445 7.21057 46.2422 7.31213 45.8984 7.51526C45.5625 7.71057 45.2812 7.99182 45.0547 8.35901C44.8359 8.71838 44.6719 9.14807 44.5625 9.64807C44.4531 10.1481 44.3984 10.7028 44.3984 11.3121V11.7809C44.3984 12.3121 44.4688 12.8043 44.6094 13.2574C44.7578 13.7106 44.9727 14.1051 45.2539 14.441C45.543 14.7692 45.8867 15.027 46.2852 15.2145C46.6914 15.3942 47.1523 15.484 47.668 15.484C48.3164 15.484 48.9023 15.359 49.4258 15.109C49.957 14.8512 50.418 14.4723 50.8086 13.9723L52.3672 15.5895C52.1016 15.9801 51.7422 16.3551 51.2891 16.7145C50.8438 17.0739 50.3047 17.3668 49.6719 17.5934C49.0391 17.8121 48.3086 17.9215 47.4805 17.9215Z" fill="#517EF3"/>
<path d="M61.7188 3.21448L56.8555 17.6871H53.4453L59.8203 0.624634H62L61.7188 3.21448ZM65.7852 17.6871L60.8984 3.21448L60.6055 0.624634H62.7969L69.207 17.6871H65.7852ZM65.5625 11.3473V13.8903H56.4102V11.3473H65.5625ZM73.5195 7.44495V22.5621H70.4141V5.00745H73.2852L73.5195 7.44495ZM81.6641 11.2184V11.4645C81.6641 12.3864 81.5547 13.2418 81.3359 14.0309C81.125 14.8121 80.8125 15.4957 80.3984 16.0817C79.9844 16.6598 79.4688 17.1129 78.8516 17.441C78.2422 17.7614 77.5391 17.9215 76.7422 17.9215C75.9609 17.9215 75.2812 17.7731 74.7031 17.4762C74.125 17.1715 73.6367 16.7418 73.2383 16.1871C72.8398 15.6324 72.5195 14.9879 72.2773 14.2535C72.043 13.5114 71.8672 12.7028 71.75 11.8278V11.0426C71.8672 10.1129 72.043 9.26917 72.2773 8.51135C72.5195 7.74573 72.8398 7.08557 73.2383 6.53088C73.6367 5.96838 74.1211 5.53479 74.6914 5.2301C75.2695 4.92542 75.9453 4.77307 76.7188 4.77307C77.5234 4.77307 78.2305 4.92542 78.8398 5.2301C79.457 5.53479 79.9766 5.97229 80.3984 6.5426C80.8203 7.11292 81.1367 7.7926 81.3477 8.58167C81.5586 9.37073 81.6641 10.2496 81.6641 11.2184ZM78.5586 11.4645V11.2184C78.5586 10.6559 78.5078 10.1364 78.4062 9.65979C78.3047 9.17542 78.1484 8.75354 77.9375 8.39417C77.7266 8.02698 77.4531 7.74182 77.1172 7.5387C76.7812 7.33557 76.375 7.23401 75.8984 7.23401C75.4219 7.23401 75.0117 7.31213 74.668 7.46838C74.3242 7.62463 74.043 7.84729 73.8242 8.13635C73.6055 8.42542 73.4336 8.76917 73.3086 9.1676C73.1914 9.55823 73.1133 9.99182 73.0742 10.4684V12.4137C73.1445 12.9918 73.2812 13.5114 73.4844 13.9723C73.6875 14.4332 73.9844 14.8004 74.375 15.0739C74.7734 15.3473 75.2891 15.484 75.9219 15.484C76.3984 15.484 76.8047 15.3785 77.1406 15.1676C77.4766 14.9567 77.75 14.6676 77.9609 14.3004C78.1719 13.9254 78.3242 13.4957 78.418 13.0114C78.5117 12.527 78.5586 12.0114 78.5586 11.4645ZM87.0195 7.44495V22.5621H83.9141V5.00745H86.7852L87.0195 7.44495ZM95.1641 11.2184V11.4645C95.1641 12.3864 95.0547 13.2418 94.8359 14.0309C94.625 14.8121 94.3125 15.4957 93.8984 16.0817C93.4844 16.6598 92.9688 17.1129 92.3516 17.441C91.7422 17.7614 91.0391 17.9215 90.2422 17.9215C89.4609 17.9215 88.7812 17.7731 88.2031 17.4762C87.625 17.1715 87.1367 16.7418 86.7383 16.1871C86.3398 15.6324 86.0195 14.9879 85.7773 14.2535C85.543 13.5114 85.3672 12.7028 85.25 11.8278V11.0426C85.3672 10.1129 85.543 9.26917 85.7773 8.51135C86.0195 7.74573 86.3398 7.08557 86.7383 6.53088C87.1367 5.96838 87.6211 5.53479 88.1914 5.2301C88.7695 4.92542 89.4453 4.77307 90.2188 4.77307C91.0234 4.77307 91.7305 4.92542 92.3398 5.2301C92.957 5.53479 93.4766 5.97229 93.8984 6.5426C94.3203 7.11292 94.6367 7.7926 94.8477 8.58167C95.0586 9.37073 95.1641 10.2496 95.1641 11.2184ZM92.0586 11.4645V11.2184C92.0586 10.6559 92.0078 10.1364 91.9062 9.65979C91.8047 9.17542 91.6484 8.75354 91.4375 8.39417C91.2266 8.02698 90.9531 7.74182 90.6172 7.5387C90.2812 7.33557 89.875 7.23401 89.3984 7.23401C88.9219 7.23401 88.5117 7.31213 88.168 7.46838C87.8242 7.62463 87.543 7.84729 87.3242 8.13635C87.1055 8.42542 86.9336 8.76917 86.8086 9.1676C86.6914 9.55823 86.6133 9.99182 86.5742 10.4684V12.4137C86.6445 12.9918 86.7812 13.5114 86.9844 13.9723C87.1875 14.4332 87.4844 14.8004 87.875 15.0739C88.2734 15.3473 88.7891 15.484 89.4219 15.484C89.8984 15.484 90.3047 15.3785 90.6406 15.1676C90.9766 14.9567 91.25 14.6676 91.4609 14.3004C91.6719 13.9254 91.8242 13.4957 91.918 13.0114C92.0117 12.527 92.0586 12.0114 92.0586 11.4645Z" fill="#5E5E5E"/>
</svg>
