<svg width="368" height="307" viewBox="0 0 368 307" fill="none" xmlns="http://www.w3.org/2000/svg">
<circle cx="196.519" cy="163.474" r="142.5" stroke="#517EF3" stroke-width="2"/>
<circle cx="196.526" cy="163.109" r="71.5" stroke="#517EF3" stroke-width="2"/>
<line x1="196.559" y1="22.4983" x2="196.559" y2="306.314" stroke="#517EF3" stroke-width="2"/>
<line x1="338.467" y1="163.406" x2="54.6513" y2="163.406" stroke="#517EF3" stroke-width="2"/>
<line x1="297.047" y1="63.3069" x2="95.4867" y2="265.02" stroke="#517EF3" stroke-width="2"/>
<line y1="-1" x2="285.157" y2="-1" transform="matrix(0.706839 0.707374 0.707374 -0.706839 95.7793 61.6001)" stroke="#517EF3" stroke-width="2"/>
<path d="M184.772 5.255C185.344 5.411 185.79 5.684 186.111 6.074C186.432 6.45533 186.592 6.91467 186.592 7.452C186.592 7.98933 186.419 8.46167 186.072 8.869C185.734 9.26767 185.279 9.57533 184.707 9.792C184.144 10 183.528 10.104 182.861 10.104C182.254 10.104 181.652 10.013 181.054 9.831C180.456 9.649 179.91 9.376 179.416 9.012L179.871 8.05C180.27 8.362 180.716 8.596 181.21 8.752C181.704 8.908 182.202 8.986 182.705 8.986C183.433 8.986 184.044 8.83433 184.538 8.531C185.032 8.219 185.279 7.79433 185.279 7.257C185.279 6.79767 185.093 6.44667 184.72 6.204C184.347 5.95267 183.823 5.827 183.147 5.827H181.119V4.774H183.056C183.637 4.774 184.087 4.657 184.408 4.423C184.737 4.18033 184.902 3.84667 184.902 3.422C184.902 2.94533 184.69 2.56833 184.265 2.291C183.84 2.01367 183.303 1.875 182.653 1.875C182.228 1.875 181.795 1.93567 181.353 2.057C180.92 2.17833 180.508 2.36033 180.118 2.603L179.702 1.537C180.161 1.277 180.647 1.082 181.158 0.951999C181.669 0.822 182.181 0.757 182.692 0.757C183.333 0.757 183.923 0.856666 184.46 1.056C184.997 1.25533 185.422 1.54567 185.734 1.927C186.055 2.30833 186.215 2.75467 186.215 3.266C186.215 3.72533 186.085 4.12833 185.825 4.475C185.574 4.82167 185.223 5.08167 184.772 5.255ZM188.42 3.11H189.668V6.035H193.594V3.11H194.842V10H193.594V7.114H189.668V10H188.42V3.11ZM203.612 3.11V10H202.416V8.908C202.139 9.28933 201.788 9.57967 201.363 9.779C200.939 9.97833 200.471 10.078 199.959 10.078C199.292 10.078 198.694 9.93067 198.165 9.636C197.637 9.34133 197.221 8.92967 196.917 8.401C196.623 7.86367 196.475 7.24833 196.475 6.555C196.475 5.86167 196.623 5.25067 196.917 4.722C197.221 4.19333 197.637 3.78167 198.165 3.487C198.694 3.19233 199.292 3.045 199.959 3.045C200.453 3.045 200.908 3.14033 201.324 3.331C201.74 3.513 202.087 3.786 202.364 4.15V3.11H203.612ZM200.063 8.986C200.497 8.986 200.891 8.88633 201.246 8.687C201.602 8.479 201.879 8.193 202.078 7.829C202.278 7.45633 202.377 7.03167 202.377 6.555C202.377 6.07833 202.278 5.658 202.078 5.294C201.879 4.92133 201.602 4.63533 201.246 4.436C200.891 4.23667 200.497 4.137 200.063 4.137C199.621 4.137 199.223 4.23667 198.867 4.436C198.521 4.63533 198.243 4.92133 198.035 5.294C197.836 5.658 197.736 6.07833 197.736 6.555C197.736 7.03167 197.836 7.45633 198.035 7.829C198.243 8.193 198.521 8.479 198.867 8.687C199.223 8.88633 199.621 8.986 200.063 8.986ZM208.548 7.088H207.118V10H205.87V3.11H207.118V6.022H208.574L210.81 3.11H212.149L209.536 6.425L212.331 10H210.862L208.548 7.088Z" fill="black"/>
<path d="M314.425 47.5381V56.6381H313.138V53.0371C312.176 53.4097 311.288 53.5961 310.473 53.5961C309.364 53.5961 308.501 53.3274 307.886 52.7901C307.279 52.2527 306.976 51.4857 306.976 50.4891V47.5381H308.25V50.3461C308.25 51.0221 308.454 51.5421 308.861 51.9061C309.277 52.2701 309.862 52.4521 310.616 52.4521C311.457 52.4521 312.297 52.2614 313.138 51.8801V47.5381H314.425ZM320.006 55.6241C320.83 55.6241 321.493 55.3467 321.995 54.7921L322.671 55.5981C322.368 55.9621 321.982 56.2394 321.514 56.4301C321.055 56.6207 320.539 56.7161 319.967 56.7161C319.239 56.7161 318.594 56.5687 318.03 56.2741C317.467 55.9707 317.029 55.5504 316.717 55.0131C316.414 54.4757 316.262 53.8691 316.262 53.1931C316.262 52.5257 316.41 51.9234 316.704 51.3861C317.008 50.8487 317.419 50.4327 317.939 50.1381C318.468 49.8347 319.062 49.6831 319.72 49.6831C320.344 49.6831 320.912 49.8261 321.423 50.1121C321.935 50.3894 322.342 50.7837 322.645 51.2951C322.949 51.8064 323.105 52.3957 323.113 53.0631L317.64 54.1291C317.814 54.6057 318.104 54.9741 318.511 55.2341C318.927 55.4941 319.426 55.6241 320.006 55.6241ZM319.72 50.7361C319.287 50.7361 318.897 50.8357 318.55 51.0351C318.212 51.2344 317.948 51.5161 317.757 51.8801C317.567 52.2354 317.471 52.6514 317.471 53.1281V53.2581L321.878 52.4261C321.766 51.9234 321.514 51.5161 321.124 51.2041C320.734 50.8921 320.266 50.7361 319.72 50.7361ZM330.556 49.7481V56.6381H329.308V50.8401H326.344L326.266 52.3741C326.223 53.3014 326.14 54.0771 326.019 54.7011C325.898 55.3164 325.698 55.8104 325.421 56.1831C325.144 56.5557 324.758 56.7421 324.264 56.7421C324.039 56.7421 323.783 56.7031 323.497 56.6251L323.575 55.5721C323.688 55.5981 323.792 55.6111 323.887 55.6111C324.234 55.6111 324.494 55.4594 324.667 55.1561C324.84 54.8527 324.953 54.4931 325.005 54.0771C325.057 53.6611 325.105 53.0674 325.148 52.2961L325.265 49.7481H330.556ZM335.79 56.7161C335.105 56.7161 334.49 56.5644 333.944 56.2611C333.398 55.9577 332.969 55.5417 332.657 55.0131C332.354 54.4757 332.202 53.8691 332.202 53.1931C332.202 52.5171 332.354 51.9147 332.657 51.3861C332.969 50.8487 333.398 50.4327 333.944 50.1381C334.49 49.8347 335.105 49.6831 335.79 49.6831C336.475 49.6831 337.086 49.8347 337.623 50.1381C338.169 50.4327 338.594 50.8487 338.897 51.3861C339.209 51.9147 339.365 52.5171 339.365 53.1931C339.365 53.8691 339.209 54.4757 338.897 55.0131C338.594 55.5417 338.169 55.9577 337.623 56.2611C337.086 56.5644 336.475 56.7161 335.79 56.7161ZM335.79 55.6241C336.232 55.6241 336.626 55.5244 336.973 55.3251C337.328 55.1171 337.606 54.8311 337.805 54.4671C338.004 54.0944 338.104 53.6697 338.104 53.1931C338.104 52.7164 338.004 52.2961 337.805 51.9321C337.606 51.5594 337.328 51.2734 336.973 51.0741C336.626 50.8747 336.232 50.7751 335.79 50.7751C335.348 50.7751 334.949 50.8747 334.594 51.0741C334.247 51.2734 333.97 51.5594 333.762 51.9321C333.563 52.2961 333.463 52.7164 333.463 53.1931C333.463 53.6697 333.563 54.0944 333.762 54.4671C333.97 54.8311 334.247 55.1171 334.594 55.3251C334.949 55.5244 335.348 55.6241 335.79 55.6241ZM345.73 53.0631C346.623 53.2884 347.069 53.8474 347.069 54.7401C347.069 55.3467 346.84 55.8147 346.38 56.1441C345.93 56.4734 345.254 56.6381 344.352 56.6381H341.037V49.7481H344.235C345.05 49.7481 345.687 49.9041 346.146 50.2161C346.606 50.5194 346.835 50.9527 346.835 51.5161C346.835 51.8801 346.736 52.1964 346.536 52.4651C346.346 52.7251 346.077 52.9244 345.73 53.0631ZM342.259 52.7121H344.131C344.608 52.7121 344.968 52.6254 345.21 52.4521C345.462 52.2787 345.587 52.0274 345.587 51.6981C345.587 51.0394 345.102 50.7101 344.131 50.7101H342.259V52.7121ZM344.261 55.6761C344.781 55.6761 345.171 55.5937 345.431 55.4291C345.691 55.2644 345.821 55.0087 345.821 54.6621C345.821 54.3067 345.7 54.0424 345.457 53.8691C345.223 53.6957 344.851 53.6091 344.339 53.6091H342.259V55.6761H344.261ZM351.974 55.6241C352.797 55.6241 353.46 55.3467 353.963 54.7921L354.639 55.5981C354.335 55.9621 353.95 56.2394 353.482 56.4301C353.022 56.6207 352.507 56.7161 351.935 56.7161C351.207 56.7161 350.561 56.5687 349.998 56.2741C349.434 55.9707 348.997 55.5504 348.685 55.0131C348.381 54.4757 348.23 53.8691 348.23 53.1931C348.23 52.5257 348.377 51.9234 348.672 51.3861C348.975 50.8487 349.387 50.4327 349.907 50.1381C350.435 49.8347 351.029 49.6831 351.688 49.6831C352.312 49.6831 352.879 49.8261 353.391 50.1121C353.902 50.3894 354.309 50.7837 354.613 51.2951C354.916 51.8064 355.072 52.3957 355.081 53.0631L349.608 54.1291C349.781 54.6057 350.071 54.9741 350.479 55.2341C350.895 55.4941 351.393 55.6241 351.974 55.6241ZM351.688 50.7361C351.254 50.7361 350.864 50.8357 350.518 51.0351C350.18 51.2344 349.915 51.5161 349.725 51.8801C349.534 52.2354 349.439 52.6514 349.439 53.1281V53.2581L353.846 52.4261C353.733 51.9234 353.482 51.5161 353.092 51.2041C352.702 50.8921 352.234 50.7361 351.688 50.7361ZM359.401 53.7261H357.971V56.6381H356.723V49.7481H357.971V52.6601H359.427L361.663 49.7481H363.002L360.389 53.0631L363.184 56.6381H361.715L359.401 53.7261Z" fill="black"/>
<path d="M314.577 268.962V278.062H313.303V270.093H308.025V278.062H306.738V268.962H314.577ZM320.352 271.107C321.046 271.107 321.657 271.255 322.185 271.549C322.723 271.844 323.134 272.26 323.42 272.797C323.715 273.326 323.862 273.937 323.862 274.631C323.862 275.315 323.719 275.926 323.433 276.463C323.147 276.992 322.749 277.404 322.237 277.698C321.726 277.993 321.141 278.141 320.482 278.141C319.962 278.141 319.494 278.049 319.078 277.867C318.662 277.677 318.316 277.404 318.038 277.048V280.585H316.777V274.643C316.777 273.95 316.925 273.335 317.219 272.797C317.523 272.26 317.943 271.844 318.48 271.549C319.026 271.255 319.65 271.107 320.352 271.107ZM320.313 277.048C320.755 277.048 321.154 276.949 321.509 276.749C321.865 276.541 322.138 276.255 322.328 275.891C322.528 275.519 322.627 275.098 322.627 274.631C322.627 274.162 322.528 273.746 322.328 273.382C322.138 273.01 321.865 272.719 321.509 272.511C321.163 272.303 320.764 272.199 320.313 272.199C319.629 272.199 319.074 272.425 318.649 272.875C318.225 273.317 318.012 273.898 318.012 274.617C318.012 275.094 318.108 275.519 318.298 275.891C318.498 276.255 318.771 276.541 319.117 276.749C319.464 276.949 319.863 277.048 320.313 277.048ZM331.833 271.172V278.062H330.637V277.048C330.386 277.395 330.056 277.664 329.649 277.854C329.242 278.045 328.795 278.141 328.31 278.141C327.391 278.141 326.668 277.889 326.139 277.386C325.61 276.875 325.346 276.125 325.346 275.137V271.172H326.594V274.994C326.594 275.662 326.754 276.169 327.075 276.515C327.396 276.853 327.855 277.022 328.453 277.022C329.112 277.022 329.632 276.823 330.013 276.424C330.394 276.026 330.585 275.462 330.585 274.734V271.172H331.833ZM337.409 271.107C338.102 271.107 338.713 271.255 339.242 271.549C339.779 271.844 340.191 272.26 340.477 272.797C340.772 273.326 340.919 273.937 340.919 274.631C340.919 275.315 340.776 275.926 340.49 276.463C340.204 276.992 339.805 277.404 339.294 277.698C338.783 277.993 338.198 278.141 337.539 278.141C337.019 278.141 336.551 278.049 336.135 277.867C335.719 277.677 335.372 277.404 335.095 277.048V280.585H333.834V274.643C333.834 273.95 333.981 273.335 334.276 272.797C334.579 272.26 335 271.844 335.537 271.549C336.083 271.255 336.707 271.107 337.409 271.107ZM337.37 277.048C337.812 277.048 338.211 276.949 338.566 276.749C338.921 276.541 339.194 276.255 339.385 275.891C339.584 275.519 339.684 275.098 339.684 274.631C339.684 274.162 339.584 273.746 339.385 273.382C339.194 273.01 338.921 272.719 338.566 272.511C338.219 272.303 337.821 272.199 337.37 272.199C336.685 272.199 336.131 272.425 335.706 272.875C335.281 273.317 335.069 273.898 335.069 274.617C335.069 275.094 335.164 275.519 335.355 275.891C335.554 276.255 335.827 276.541 336.174 276.749C336.521 276.949 336.919 277.048 337.37 277.048ZM345.561 278.141C344.877 278.141 344.261 277.989 343.715 277.685C343.169 277.382 342.74 276.966 342.428 276.438C342.125 275.9 341.973 275.293 341.973 274.617C341.973 273.941 342.125 273.339 342.428 272.81C342.74 272.273 343.169 271.857 343.715 271.562C344.261 271.259 344.877 271.107 345.561 271.107C346.246 271.107 346.857 271.259 347.394 271.562C347.94 271.857 348.365 272.273 348.668 272.81C348.98 273.339 349.136 273.941 349.136 274.617C349.136 275.293 348.98 275.9 348.668 276.438C348.365 276.966 347.94 277.382 347.394 277.685C346.857 277.989 346.246 278.141 345.561 278.141ZM345.561 277.048C346.003 277.048 346.398 276.949 346.744 276.749C347.1 276.541 347.377 276.255 347.576 275.891C347.776 275.519 347.875 275.094 347.875 274.617C347.875 274.141 347.776 273.72 347.576 273.356C347.377 272.984 347.1 272.698 346.744 272.498C346.398 272.299 346.003 272.199 345.561 272.199C345.119 272.199 344.721 272.299 344.365 272.498C344.019 272.698 343.741 272.984 343.533 273.356C343.334 273.72 343.234 274.141 343.234 274.617C343.234 275.094 343.334 275.519 343.533 275.891C343.741 276.255 344.019 276.541 344.365 276.749C344.721 276.949 345.119 277.048 345.561 277.048ZM357.36 271.172V277.126C357.36 278.331 357.061 279.22 356.463 279.792C355.865 280.372 354.973 280.663 353.785 280.663C353.135 280.663 352.516 280.572 351.926 280.39C351.337 280.216 350.86 279.965 350.496 279.636L351.094 278.674C351.415 278.951 351.809 279.168 352.277 279.324C352.754 279.488 353.244 279.571 353.746 279.571C354.552 279.571 355.146 279.38 355.527 278.999C355.917 278.617 356.112 278.036 356.112 277.256V276.71C355.818 277.066 355.454 277.334 355.02 277.516C354.596 277.69 354.132 277.776 353.629 277.776C352.971 277.776 352.373 277.638 351.835 277.36C351.307 277.074 350.891 276.68 350.587 276.177C350.284 275.666 350.132 275.085 350.132 274.435C350.132 273.785 350.284 273.209 350.587 272.706C350.891 272.195 351.307 271.801 351.835 271.523C352.373 271.246 352.971 271.107 353.629 271.107C354.149 271.107 354.63 271.203 355.072 271.393C355.523 271.584 355.891 271.866 356.177 272.238V271.172H357.36ZM353.772 276.684C354.223 276.684 354.626 276.589 354.981 276.398C355.345 276.208 355.627 275.943 355.826 275.605C356.034 275.259 356.138 274.869 356.138 274.435C356.138 273.768 355.917 273.231 355.475 272.823C355.033 272.407 354.466 272.199 353.772 272.199C353.07 272.199 352.498 272.407 352.056 272.823C351.614 273.231 351.393 273.768 351.393 274.435C351.393 274.869 351.493 275.259 351.692 275.605C351.9 275.943 352.182 276.208 352.537 276.398C352.901 276.589 353.313 276.684 353.772 276.684ZM366.141 271.172V278.062H364.945V276.97C364.667 277.352 364.316 277.642 363.892 277.841C363.467 278.041 362.999 278.141 362.488 278.141C361.82 278.141 361.222 277.993 360.694 277.698C360.165 277.404 359.749 276.992 359.446 276.463C359.151 275.926 359.004 275.311 359.004 274.617C359.004 273.924 359.151 273.313 359.446 272.784C359.749 272.256 360.165 271.844 360.694 271.549C361.222 271.255 361.82 271.107 362.488 271.107C362.982 271.107 363.437 271.203 363.853 271.393C364.269 271.575 364.615 271.848 364.893 272.212V271.172H366.141ZM362.592 277.048C363.025 277.048 363.419 276.949 363.775 276.749C364.13 276.541 364.407 276.255 364.607 275.891C364.806 275.519 364.906 275.094 364.906 274.617C364.906 274.141 364.806 273.72 364.607 273.356C364.407 272.984 364.13 272.698 363.775 272.498C363.419 272.299 363.025 272.199 362.592 272.199C362.15 272.199 361.751 272.299 361.396 272.498C361.049 272.698 360.772 272.984 360.564 273.356C360.364 273.72 360.265 274.141 360.265 274.617C360.265 275.094 360.364 275.519 360.564 275.891C360.772 276.255 361.049 276.541 361.396 276.749C361.751 276.949 362.15 277.048 362.592 277.048Z" fill="black"/>
<path d="M9.19955 268.922V278.022H7.95155V276.735C7.33622 277.662 6.34822 278.126 4.98755 278.126C3.90422 278.126 3.05489 277.797 2.43955 277.138C1.83289 276.479 1.52955 275.539 1.52955 274.317V268.922H2.82955V274.278C2.82955 275.153 3.04622 275.821 3.47955 276.28C3.91289 276.739 4.50655 276.969 5.26055 276.969C6.07522 276.969 6.72089 276.726 7.19755 276.241C7.67422 275.756 7.91255 275.036 7.91255 274.083V268.922H9.19955ZM14.6458 278.1C13.9438 278.1 13.3155 277.948 12.7608 277.645C12.2148 277.342 11.7858 276.926 11.4738 276.397C11.1618 275.86 11.0058 275.253 11.0058 274.577C11.0058 273.901 11.1618 273.299 11.4738 272.77C11.7858 272.233 12.2148 271.817 12.7608 271.522C13.3155 271.219 13.9438 271.067 14.6458 271.067C15.2698 271.067 15.8245 271.193 16.3098 271.444C16.8038 271.695 17.1852 272.059 17.4538 272.536L16.5048 273.147C16.2882 272.818 16.0195 272.571 15.6988 272.406C15.3782 272.241 15.0228 272.159 14.6328 272.159C14.1822 272.159 13.7748 272.259 13.4108 272.458C13.0555 272.657 12.7738 272.943 12.5658 273.316C12.3665 273.68 12.2668 274.1 12.2668 274.577C12.2668 275.062 12.3665 275.491 12.5658 275.864C12.7738 276.228 13.0555 276.51 13.4108 276.709C13.7748 276.908 14.1822 277.008 14.6328 277.008C15.0228 277.008 15.3782 276.926 15.6988 276.761C16.0195 276.596 16.2882 276.349 16.5048 276.02L17.4538 276.618C17.1852 277.095 16.8038 277.463 16.3098 277.723C15.8245 277.974 15.2698 278.1 14.6458 278.1ZM21.6176 275.11H20.1876V278.022H18.9396V271.132H20.1876V274.044H21.6436L23.8796 271.132H25.2186L22.6056 274.447L25.4006 278.022H23.9316L21.6176 275.11ZM32.8482 271.132V277.086C32.8482 278.291 32.5665 279.179 32.0032 279.751C31.4398 280.332 30.5948 280.622 29.4682 280.622C28.8528 280.622 28.2635 280.531 27.7002 280.349C27.1455 280.176 26.6905 279.924 26.3352 279.595L26.9462 278.633C27.2495 278.91 27.6135 279.127 28.0382 279.283C28.4715 279.439 28.9265 279.517 29.4032 279.517C30.1572 279.517 30.7118 279.326 31.0672 278.945C31.4225 278.572 31.6002 277.996 31.6002 277.216V276.709C31.3488 277.038 31.0238 277.294 30.6252 277.476C30.2265 277.649 29.7932 277.736 29.3252 277.736C28.4065 277.736 27.6828 277.485 27.1542 276.982C26.6255 276.479 26.3612 275.734 26.3612 274.746V271.132H27.6092V274.603C27.6092 275.262 27.7695 275.764 28.0902 276.111C28.4108 276.449 28.8702 276.618 29.4682 276.618C30.1268 276.618 30.6468 276.419 31.0282 276.02C31.4095 275.621 31.6002 275.058 31.6002 274.33V271.132H32.8482ZM38.123 278.1C37.421 278.1 36.7927 277.948 36.238 277.645C35.692 277.342 35.263 276.926 34.951 276.397C34.639 275.86 34.483 275.253 34.483 274.577C34.483 273.901 34.639 273.299 34.951 272.77C35.263 272.233 35.692 271.817 36.238 271.522C36.7927 271.219 37.421 271.067 38.123 271.067C38.747 271.067 39.3017 271.193 39.787 271.444C40.281 271.695 40.6624 272.059 40.931 272.536L39.982 273.147C39.7654 272.818 39.4967 272.571 39.176 272.406C38.8554 272.241 38.5 272.159 38.11 272.159C37.6594 272.159 37.252 272.259 36.888 272.458C36.5327 272.657 36.251 272.943 36.043 273.316C35.8437 273.68 35.744 274.1 35.744 274.577C35.744 275.062 35.8437 275.491 36.043 275.864C36.251 276.228 36.5327 276.51 36.888 276.709C37.252 276.908 37.6594 277.008 38.11 277.008C38.5 277.008 38.8554 276.926 39.176 276.761C39.4967 276.596 39.7654 276.349 39.982 276.02L40.931 276.618C40.6624 277.095 40.281 277.463 39.787 277.723C39.3017 277.974 38.747 278.1 38.123 278.1ZM45.3182 278.1C44.6162 278.1 43.9879 277.948 43.4332 277.645C42.8872 277.342 42.4582 276.926 42.1462 276.397C41.8342 275.86 41.6782 275.253 41.6782 274.577C41.6782 273.901 41.8342 273.299 42.1462 272.77C42.4582 272.233 42.8872 271.817 43.4332 271.522C43.9879 271.219 44.6162 271.067 45.3182 271.067C45.9422 271.067 46.4969 271.193 46.9822 271.444C47.4762 271.695 47.8576 272.059 48.1262 272.536L47.1772 273.147C46.9606 272.818 46.6919 272.571 46.3712 272.406C46.0506 272.241 45.6952 272.159 45.3052 272.159C44.8546 272.159 44.4472 272.259 44.0832 272.458C43.7279 272.657 43.4462 272.943 43.2382 273.316C43.0389 273.68 42.9392 274.1 42.9392 274.577C42.9392 275.062 43.0389 275.491 43.2382 275.864C43.4462 276.228 43.7279 276.51 44.0832 276.709C44.4472 276.908 44.8546 277.008 45.3052 277.008C45.6952 277.008 46.0506 276.926 46.3712 276.761C46.6919 276.596 46.9606 276.349 47.1772 276.02L48.1262 276.618C47.8576 277.095 47.4762 277.463 46.9822 277.723C46.4969 277.974 45.9422 278.1 45.3182 278.1ZM58.231 271.067C59.0977 271.067 59.7823 271.318 60.285 271.821C60.7963 272.324 61.052 273.069 61.052 274.057V278.022H59.804V274.2C59.804 273.533 59.648 273.03 59.336 272.692C59.0327 272.354 58.595 272.185 58.023 272.185C57.3903 272.185 56.8877 272.384 56.515 272.783C56.1423 273.173 55.956 273.736 55.956 274.473V278.022H54.708V274.2C54.708 273.533 54.552 273.03 54.24 272.692C53.9367 272.354 53.499 272.185 52.927 272.185C52.2943 272.185 51.7917 272.384 51.419 272.783C51.0463 273.173 50.86 273.736 50.86 274.473V278.022H49.612V271.132H50.808V272.159C51.0593 271.804 51.3887 271.535 51.796 271.353C52.2033 271.162 52.667 271.067 53.187 271.067C53.7243 271.067 54.201 271.175 54.617 271.392C55.033 271.609 55.3537 271.925 55.579 272.341C55.839 271.942 56.1987 271.63 56.658 271.405C57.126 271.18 57.6503 271.067 58.231 271.067ZM67.8351 274.447C68.7278 274.672 69.1741 275.231 69.1741 276.124C69.1741 276.731 68.9445 277.199 68.4851 277.528C68.0345 277.857 67.3585 278.022 66.4571 278.022H63.1421V271.132H66.3401C67.1548 271.132 67.7918 271.288 68.2511 271.6C68.7105 271.903 68.9401 272.337 68.9401 272.9C68.9401 273.264 68.8405 273.58 68.6411 273.849C68.4505 274.109 68.1818 274.308 67.8351 274.447ZM64.3641 274.096H66.2361C66.7128 274.096 67.0725 274.009 67.3151 273.836C67.5665 273.663 67.6921 273.411 67.6921 273.082C67.6921 272.423 67.2068 272.094 66.2361 272.094H64.3641V274.096ZM66.3661 277.06C66.8861 277.06 67.2761 276.978 67.5361 276.813C67.7961 276.648 67.9261 276.393 67.9261 276.046C67.9261 275.691 67.8048 275.426 67.5621 275.253C67.3281 275.08 66.9555 274.993 66.4441 274.993H64.3641V277.06H66.3661ZM73.9485 278.1C73.2638 278.1 72.6485 277.948 72.1025 277.645C71.5565 277.342 71.1275 276.926 70.8155 276.397C70.5122 275.86 70.3605 275.253 70.3605 274.577C70.3605 273.901 70.5122 273.299 70.8155 272.77C71.1275 272.233 71.5565 271.817 72.1025 271.522C72.6485 271.219 73.2638 271.067 73.9485 271.067C74.6332 271.067 75.2442 271.219 75.7815 271.522C76.3275 271.817 76.7522 272.233 77.0555 272.77C77.3675 273.299 77.5235 273.901 77.5235 274.577C77.5235 275.253 77.3675 275.86 77.0555 276.397C76.7522 276.926 76.3275 277.342 75.7815 277.645C75.2442 277.948 74.6332 278.1 73.9485 278.1ZM73.9485 277.008C74.3905 277.008 74.7848 276.908 75.1315 276.709C75.4868 276.501 75.7642 276.215 75.9635 275.851C76.1628 275.478 76.2625 275.054 76.2625 274.577C76.2625 274.1 76.1628 273.68 75.9635 273.316C75.7642 272.943 75.4868 272.657 75.1315 272.458C74.7848 272.259 74.3905 272.159 73.9485 272.159C73.5065 272.159 73.1078 272.259 72.7525 272.458C72.4058 272.657 72.1285 272.943 71.9205 273.316C71.7212 273.68 71.6215 274.1 71.6215 274.577C71.6215 275.054 71.7212 275.478 71.9205 275.851C72.1285 276.215 72.4058 276.501 72.7525 276.709C73.1078 276.908 73.5065 277.008 73.9485 277.008Z" fill="black"/>
<path d="M38.592 48.863C37.708 48.3603 36.7633 48.0613 35.758 47.966V56H34.471V47.966C33.457 48.0613 32.508 48.3603 31.624 48.863L31.169 47.836C32.3303 47.1427 33.639 46.796 35.095 46.796C36.5683 46.796 37.8857 47.1427 39.047 47.836L38.592 48.863ZM42.6502 54.986C43.4736 54.986 44.1366 54.7087 44.6392 54.154L45.3152 54.96C45.0119 55.324 44.6262 55.6013 44.1582 55.792C43.6989 55.9827 43.1832 56.078 42.6112 56.078C41.8832 56.078 41.2376 55.9307 40.6742 55.636C40.1109 55.3327 39.6732 54.9123 39.3612 54.375C39.0579 53.8377 38.9062 53.231 38.9062 52.555C38.9062 51.8877 39.0536 51.2853 39.3482 50.748C39.6516 50.2107 40.0632 49.7947 40.5832 49.5C41.1119 49.1967 41.7056 49.045 42.3642 49.045C42.9882 49.045 43.5559 49.188 44.0672 49.474C44.5786 49.7513 44.9859 50.1457 45.2892 50.657C45.5926 51.1683 45.7486 51.7577 45.7572 52.425L40.2842 53.491C40.4576 53.9677 40.7479 54.336 41.1552 54.596C41.5712 54.856 42.0696 54.986 42.6502 54.986ZM42.3642 50.098C41.9309 50.098 41.5409 50.1977 41.1942 50.397C40.8562 50.5963 40.5919 50.878 40.4012 51.242C40.2106 51.5973 40.1152 52.0133 40.1152 52.49V52.62L44.5222 51.788C44.4096 51.2853 44.1582 50.878 43.7682 50.566C43.3782 50.254 42.9102 50.098 42.3642 50.098ZM51.5118 56L49.5228 53.361L47.5078 56H46.1168L48.8338 52.477L46.2468 49.11H47.6378L49.5358 51.593L51.4208 49.11H52.7858L50.1858 52.477L52.9288 56H51.5118ZM54.112 49.11H55.36V52.035H59.286V49.11H60.534V56H59.286V53.114H55.36V56H54.112V49.11ZM69.1096 49.11V56H67.9136V54.986C67.6623 55.3327 67.3329 55.6013 66.9256 55.792C66.5183 55.9827 66.0719 56.078 65.5866 56.078C64.6679 56.078 63.9443 55.8267 63.4156 55.324C62.8869 54.8127 62.6226 54.063 62.6226 53.075V49.11H63.8706V52.932C63.8706 53.5993 64.0309 54.1063 64.3516 54.453C64.6723 54.791 65.1316 54.96 65.7296 54.96C66.3883 54.96 66.9083 54.7607 67.2896 54.362C67.6709 53.9633 67.8616 53.4 67.8616 52.672V49.11H69.1096ZM74.0876 53.088H72.6576V56H71.4096V49.11H72.6576V52.022H74.1136L76.3496 49.11H77.6886L75.0756 52.425L77.8706 56H76.4016L74.0876 53.088ZM85.2946 49.11V56H84.0986V54.908C83.8213 55.2893 83.4703 55.5797 83.0456 55.779C82.6209 55.9783 82.1529 56.078 81.6416 56.078C80.9743 56.078 80.3763 55.9307 79.8476 55.636C79.3189 55.3413 78.9029 54.9297 78.5996 54.401C78.3049 53.8637 78.1576 53.2483 78.1576 52.555C78.1576 51.8617 78.3049 51.2507 78.5996 50.722C78.9029 50.1933 79.3189 49.7817 79.8476 49.487C80.3763 49.1923 80.9743 49.045 81.6416 49.045C82.1356 49.045 82.5906 49.1403 83.0066 49.331C83.4226 49.513 83.7693 49.786 84.0466 50.15V49.11H85.2946ZM81.7456 54.986C82.1789 54.986 82.5733 54.8863 82.9286 54.687C83.2839 54.479 83.5613 54.193 83.7606 53.829C83.9599 53.4563 84.0596 53.0317 84.0596 52.555C84.0596 52.0783 83.9599 51.658 83.7606 51.294C83.5613 50.9213 83.2839 50.6353 82.9286 50.436C82.5733 50.2367 82.1789 50.137 81.7456 50.137C81.3036 50.137 80.9049 50.2367 80.5496 50.436C80.2029 50.6353 79.9256 50.9213 79.7176 51.294C79.5183 51.658 79.4186 52.0783 79.4186 52.555C79.4186 53.0317 79.5183 53.4563 79.7176 53.829C79.9256 54.193 80.2029 54.479 80.5496 54.687C80.9049 54.8863 81.3036 54.986 81.7456 54.986Z" fill="black"/>
<path d="M204.9 30.527C206.2 30.527 207.153 30.774 207.76 31.268C208.375 31.7533 208.683 32.4207 208.683 33.27C208.683 33.8073 208.553 34.2927 208.293 34.726C208.042 35.1507 207.656 35.4887 207.136 35.74C206.625 35.9827 205.992 36.104 205.238 36.104C204.597 36.104 203.977 36.0087 203.379 35.818C202.781 35.6187 202.287 35.3457 201.897 34.999L202.495 33.972C202.807 34.2667 203.206 34.505 203.691 34.687C204.176 34.8603 204.688 34.947 205.225 34.947C205.91 34.947 206.438 34.804 206.811 34.518C207.192 34.2233 207.383 33.8247 207.383 33.322C207.383 32.776 207.175 32.3643 206.759 32.087C206.343 31.801 205.632 31.658 204.627 31.658H202.56L203.041 26.9H208.176V28.031H204.133L203.886 30.527H204.9Z" fill="#656971"/>
<path d="M208.696 85.869V87H202.157V86.116L205.862 82.541C206.313 82.1077 206.616 81.735 206.772 81.423C206.928 81.1023 207.006 80.7817 207.006 80.461C207.006 79.9843 206.837 79.616 206.499 79.356C206.17 79.0873 205.693 78.953 205.069 78.953C204.064 78.953 203.288 79.2823 202.742 79.941L201.858 79.174C202.213 78.7407 202.677 78.4027 203.249 78.16C203.83 77.9173 204.475 77.796 205.186 77.796C206.139 77.796 206.898 78.0257 207.461 78.485C208.024 78.9357 208.306 79.551 208.306 80.331C208.306 80.8163 208.202 81.2757 207.994 81.709C207.786 82.1423 207.392 82.6363 206.811 83.191L204.029 85.869H208.696Z" fill="#656971"/>
<path d="M173.243 188.03L153.964 121.265L196 128.406L253.219 108.055L241.437 208.739L173.243 188.03Z" fill="#0F1893" fill-opacity="0.56"/>
<circle cx="172.857" cy="187.177" r="4" fill="#0E1895"/>
<circle cx="154.215" cy="121.08" r="4" fill="#0E1895"/>
<circle cx="196.519" cy="127.984" r="4" fill="#0E1895"/>
<circle cx="252.957" cy="106.988" r="4" fill="#0E1895"/>
<circle cx="241.322" cy="208.255" r="4" fill="#0E1895"/>
</svg>
