<svg width="4463" height="707" viewBox="0 0 4463 707" fill="none" xmlns="http://www.w3.org/2000/svg">
<path d="M1538.96 419.7C1605.89 372.448 1792.42 279.309 1978.7 346.438C2225.45 435.359 2459.73 306.574 2459.73 306.574C2459.73 306.574 2849.71 91.5769 3076.97 242.258" stroke="#787878" stroke-width="20"/>
<path d="M5.29667 289.423C75.938 330.932 267.792 415.183 447.831 332.761C686.314 223.583 1000.85 418.802 1000.85 418.802C1000.85 418.802 1315.89 572.919 1539.39 419.347" stroke="#787878" stroke-width="20"/>
<path d="M3075.36 241.298C3146.25 282.386 3318.01 341.331 3497.55 257.84C3735.38 147.246 4065.33 257.84 4065.33 257.84C4065.33 257.84 4229.57 316.302 4452.15 161.404" stroke="#787878" stroke-width="20"/>
</svg>
