<svg width="95" height="23" viewBox="0 0 95 23" fill="none" xmlns="http://www.w3.org/2000/svg">
<path d="M5.19531 17.9371H1.51562L1.53906 15.4059H5.19531C6.1875 15.4059 7.01953 15.1871 7.69141 14.7496C8.36328 14.3043 8.87109 13.6676 9.21484 12.8394C9.55859 12.0035 9.73047 11.0035 9.73047 9.83945V8.96054C9.73047 8.0621 9.63281 7.26913 9.4375 6.58163C9.24219 5.89413 8.95312 5.31601 8.57031 4.84726C8.19531 4.37851 7.73047 4.02304 7.17578 3.78085C6.62109 3.53867 5.98438 3.41757 5.26562 3.41757H1.44531V0.874603H5.26562C6.40625 0.874603 7.44531 1.06601 8.38281 1.44882C9.32812 1.83163 10.1445 2.38242 10.832 3.10117C11.5273 3.8121 12.0586 4.66367 12.4258 5.65585C12.8008 6.64804 12.9883 7.75742 12.9883 8.98398V9.83945C12.9883 11.0582 12.8008 12.1676 12.4258 13.1676C12.0586 14.1598 11.5273 15.0113 10.832 15.7223C10.1445 16.4332 9.32422 16.9801 8.37109 17.3629C7.41797 17.7457 6.35938 17.9371 5.19531 17.9371ZM3.32031 0.874603V17.9371H0.0976562V0.874603H3.32031ZM23.043 14.9254V5.25742H26.1602V17.9371H23.2305L23.043 14.9254ZM23.4414 12.3004L24.4023 12.2769C24.4023 13.1285 24.3086 13.9137 24.1211 14.6324C23.9336 15.3512 23.6406 15.9762 23.2422 16.5074C22.8516 17.0309 22.3555 17.441 21.7539 17.7379C21.1523 18.0269 20.4414 18.1715 19.6211 18.1715C18.9961 18.1715 18.4258 18.0855 17.9102 17.9137C17.3945 17.734 16.9492 17.4566 16.5742 17.0816C16.207 16.6988 15.9219 16.2105 15.7188 15.6168C15.5156 15.0152 15.4141 14.2926 15.4141 13.4488V5.25742H18.5078V13.4723C18.5078 13.8941 18.5547 14.2457 18.6484 14.5269C18.75 14.8082 18.8867 15.0387 19.0586 15.2184C19.2383 15.3902 19.4453 15.5152 19.6797 15.5934C19.9219 15.6637 20.1797 15.6988 20.4531 15.6988C21.2031 15.6988 21.793 15.5504 22.2227 15.2535C22.6602 14.9488 22.9727 14.5426 23.1602 14.0348C23.3477 13.5191 23.4414 12.941 23.4414 12.3004ZM35.875 14.4684C35.875 14.2027 35.8047 13.9644 35.6641 13.7535C35.5234 13.5426 35.2578 13.3512 34.8672 13.1793C34.4844 12.9996 33.9219 12.8316 33.1797 12.6754C32.5234 12.5348 31.918 12.359 31.3633 12.148C30.8086 11.9371 30.332 11.6832 29.9336 11.3863C29.5352 11.0816 29.2227 10.7262 28.9961 10.3199C28.7773 9.90585 28.668 9.42929 28.668 8.89023C28.668 8.36679 28.7812 7.8746 29.0078 7.41367C29.2344 6.94492 29.5625 6.53476 29.9922 6.1832C30.4219 5.82382 30.9453 5.54257 31.5625 5.33945C32.1797 5.12851 32.875 5.02304 33.6484 5.02304C34.7266 5.02304 35.6523 5.19882 36.4258 5.55038C37.207 5.90195 37.8047 6.38632 38.2188 7.00351C38.6328 7.61288 38.8398 8.30038 38.8398 9.06601H35.7461C35.7461 8.73007 35.668 8.42538 35.5117 8.15195C35.3633 7.87851 35.1328 7.65976 34.8203 7.4957C34.5078 7.32382 34.1133 7.23788 33.6367 7.23788C33.207 7.23788 32.8438 7.3082 32.5469 7.44882C32.2578 7.58945 32.0391 7.77304 31.8906 7.9996C31.7422 8.22617 31.668 8.47617 31.668 8.7496C31.668 8.95273 31.707 9.13632 31.7852 9.30038C31.8711 9.45663 32.0078 9.60117 32.1953 9.73398C32.3828 9.86679 32.6367 9.98788 32.957 10.0973C33.2852 10.2066 33.6875 10.3121 34.1641 10.4137C35.1094 10.6012 35.9336 10.8512 36.6367 11.1637C37.3477 11.4684 37.9023 11.8746 38.3008 12.3824C38.6992 12.8902 38.8984 13.5387 38.8984 14.3277C38.8984 14.8902 38.7773 15.4059 38.5352 15.8746C38.293 16.3355 37.9414 16.7379 37.4805 17.0816C37.0195 17.4254 36.4688 17.6949 35.8281 17.8902C35.1875 18.0777 34.4648 18.1715 33.6602 18.1715C32.4961 18.1715 31.5117 17.9644 30.707 17.5504C29.9023 17.1285 29.293 16.5973 28.8789 15.9566C28.4648 15.3082 28.2578 14.6363 28.2578 13.941H31.2227C31.2461 14.4332 31.3789 14.8277 31.6211 15.1246C31.8633 15.4215 32.168 15.6363 32.5352 15.7691C32.9102 15.8941 33.3047 15.9566 33.7188 15.9566C34.1875 15.9566 34.582 15.8941 34.9023 15.7691C35.2227 15.6363 35.4648 15.4605 35.6289 15.2418C35.793 15.0152 35.875 14.7574 35.875 14.4684ZM46.9492 18.1715C45.9883 18.1715 45.125 18.0152 44.3594 17.7027C43.5938 17.3902 42.9414 16.9566 42.4023 16.4019C41.8711 15.8394 41.4609 15.1871 41.1719 14.4449C40.8906 13.6949 40.75 12.8902 40.75 12.0309V11.5621C40.75 10.5855 40.8906 9.69882 41.1719 8.90195C41.4531 8.09726 41.8516 7.40585 42.3672 6.82773C42.8828 6.2496 43.5 5.80429 44.2188 5.49179C44.9375 5.17929 45.7305 5.02304 46.5977 5.02304C47.4961 5.02304 48.2891 5.17538 48.9766 5.48007C49.6641 5.77695 50.2383 6.19882 50.6992 6.7457C51.1602 7.29257 51.5078 7.94882 51.7422 8.71445C51.9766 9.47226 52.0938 10.3121 52.0938 11.234V12.5348H42.1562V10.4019H49.0469V10.1676C49.0312 9.67538 48.9375 9.22617 48.7656 8.81992C48.5938 8.40585 48.3281 8.07773 47.9688 7.83554C47.6094 7.58554 47.1445 7.46054 46.5742 7.46054C46.1133 7.46054 45.7109 7.5621 45.3672 7.76523C45.0312 7.96054 44.75 8.24179 44.5234 8.60898C44.3047 8.96835 44.1406 9.39804 44.0312 9.89804C43.9219 10.398 43.8672 10.9527 43.8672 11.5621V12.0309C43.8672 12.5621 43.9375 13.0543 44.0781 13.5074C44.2266 13.9605 44.4414 14.3551 44.7227 14.691C45.0117 15.0191 45.3555 15.2769 45.7539 15.4644C46.1602 15.6441 46.6211 15.734 47.1367 15.734C47.7852 15.734 48.3711 15.609 48.8945 15.359C49.4258 15.1012 49.8867 14.7223 50.2773 14.2223L51.8359 15.8394C51.5703 16.2301 51.2109 16.6051 50.7578 16.9644C50.3125 17.3238 49.7734 17.6168 49.1406 17.8434C48.5078 18.0621 47.7773 18.1715 46.9492 18.1715Z" fill="#2864FF"/>
<path d="M61.1875 3.46445L56.3242 17.9371H52.9141L59.2891 0.874603H61.4688L61.1875 3.46445ZM65.2539 17.9371L60.3672 3.46445L60.0742 0.874603H62.2656L68.6758 17.9371H65.2539ZM65.0312 11.5973V14.1402H55.8789V11.5973H65.0312ZM72.9883 7.69492V22.8121H69.8828V5.25742H72.7539L72.9883 7.69492ZM81.1328 11.4684V11.7144C81.1328 12.6363 81.0234 13.4918 80.8047 14.2809C80.5938 15.0621 80.2812 15.7457 79.8672 16.3316C79.4531 16.9098 78.9375 17.3629 78.3203 17.691C77.7109 18.0113 77.0078 18.1715 76.2109 18.1715C75.4297 18.1715 74.75 18.023 74.1719 17.7262C73.5938 17.4215 73.1055 16.9918 72.707 16.4371C72.3086 15.8824 71.9883 15.2379 71.7461 14.5035C71.5117 13.7613 71.3359 12.9527 71.2188 12.0777V11.2926C71.3359 10.3629 71.5117 9.51913 71.7461 8.76132C71.9883 7.9957 72.3086 7.33554 72.707 6.78085C73.1055 6.21835 73.5898 5.78476 74.1602 5.48007C74.7383 5.17538 75.4141 5.02304 76.1875 5.02304C76.9922 5.02304 77.6992 5.17538 78.3086 5.48007C78.9258 5.78476 79.4453 6.22226 79.8672 6.79257C80.2891 7.36288 80.6055 8.04257 80.8164 8.83163C81.0273 9.6207 81.1328 10.4996 81.1328 11.4684ZM78.0273 11.7144V11.4684C78.0273 10.9059 77.9766 10.3863 77.875 9.90976C77.7734 9.42538 77.6172 9.00351 77.4062 8.64413C77.1953 8.27695 76.9219 7.99179 76.5859 7.78867C76.25 7.58554 75.8438 7.48398 75.3672 7.48398C74.8906 7.48398 74.4805 7.5621 74.1367 7.71835C73.793 7.8746 73.5117 8.09726 73.293 8.38632C73.0742 8.67538 72.9023 9.01913 72.7773 9.41757C72.6602 9.8082 72.582 10.2418 72.543 10.7184V12.6637C72.6133 13.2418 72.75 13.7613 72.9531 14.2223C73.1562 14.6832 73.4531 15.0504 73.8438 15.3238C74.2422 15.5973 74.7578 15.734 75.3906 15.734C75.8672 15.734 76.2734 15.6285 76.6094 15.4176C76.9453 15.2066 77.2188 14.9176 77.4297 14.5504C77.6406 14.1754 77.793 13.7457 77.8867 13.2613C77.9805 12.7769 78.0273 12.2613 78.0273 11.7144ZM86.4883 7.69492V22.8121H83.3828V5.25742H86.2539L86.4883 7.69492ZM94.6328 11.4684V11.7144C94.6328 12.6363 94.5234 13.4918 94.3047 14.2809C94.0938 15.0621 93.7812 15.7457 93.3672 16.3316C92.9531 16.9098 92.4375 17.3629 91.8203 17.691C91.2109 18.0113 90.5078 18.1715 89.7109 18.1715C88.9297 18.1715 88.25 18.023 87.6719 17.7262C87.0938 17.4215 86.6055 16.9918 86.207 16.4371C85.8086 15.8824 85.4883 15.2379 85.2461 14.5035C85.0117 13.7613 84.8359 12.9527 84.7188 12.0777V11.2926C84.8359 10.3629 85.0117 9.51913 85.2461 8.76132C85.4883 7.9957 85.8086 7.33554 86.207 6.78085C86.6055 6.21835 87.0898 5.78476 87.6602 5.48007C88.2383 5.17538 88.9141 5.02304 89.6875 5.02304C90.4922 5.02304 91.1992 5.17538 91.8086 5.48007C92.4258 5.78476 92.9453 6.22226 93.3672 6.79257C93.7891 7.36288 94.1055 8.04257 94.3164 8.83163C94.5273 9.6207 94.6328 10.4996 94.6328 11.4684ZM91.5273 11.7144V11.4684C91.5273 10.9059 91.4766 10.3863 91.375 9.90976C91.2734 9.42538 91.1172 9.00351 90.9062 8.64413C90.6953 8.27695 90.4219 7.99179 90.0859 7.78867C89.75 7.58554 89.3438 7.48398 88.8672 7.48398C88.3906 7.48398 87.9805 7.5621 87.6367 7.71835C87.293 7.8746 87.0117 8.09726 86.793 8.38632C86.5742 8.67538 86.4023 9.01913 86.2773 9.41757C86.1602 9.8082 86.082 10.2418 86.043 10.7184V12.6637C86.1133 13.2418 86.25 13.7613 86.4531 14.2223C86.6562 14.6832 86.9531 15.0504 87.3438 15.3238C87.7422 15.5973 88.2578 15.734 88.8906 15.734C89.3672 15.734 89.7734 15.6285 90.1094 15.4176C90.4453 15.2066 90.7188 14.9176 90.9297 14.5504C91.1406 14.1754 91.293 13.7457 91.3867 13.2613C91.4805 12.7769 91.5273 12.2613 91.5273 11.7144Z" fill="#5E5E5E"/>
</svg>
